<svg width="147" height="18" viewBox="0 0 147 18" fill="none" xmlns="http://www.w3.org/2000/svg">
<path d="M17.2984 1.54518C16.6487 0.447678 15.449 0 13.1581 0H4.84177C2.49834 0 1.27841 0.476555 0.631104 1.645C0 2.78425 0 4.46283 0 6.78603V11.214C0 15.7148 0.7488 18 4.84177 18H13.1581C15.1448 18 16.2458 17.605 16.958 16.6364C17.6884 15.6432 18 14.0216 18 11.214V6.78603C18 4.33602 17.9512 2.64754 17.2984 1.54518ZM11.5561 9.61137L7.77966 12.4158C7.69524 12.4785 7.60291 12.5096 7.5107 12.5096C7.4063 12.5096 7.30214 12.4697 7.20987 12.3903C7.03614 12.2408 6.93006 11.9732 6.93006 11.6846V6.09364C6.93006 5.80553 7.03585 5.53821 7.20924 5.38854C7.38267 5.23889 7.59838 5.22866 7.77832 5.36149L11.5548 8.14787C11.7469 8.28963 11.8675 8.57147 11.8678 8.87896C11.8681 9.18672 11.7479 9.46896 11.5561 9.61137Z" fill="#333333"/>
<path d="M89.2867 0C87.466 0 86 1.46601 86 3.28669V14.7133C86 16.534 87.466 18 89.2867 18H95.4798V10.9631H93.6191V8.42963H95.4798V6.26513C95.4798 4.56458 96.5792 3.00319 99.1119 3.00319C100.137 3.00319 100.896 3.10163 100.896 3.10163L100.836 5.46752C100.836 5.46752 100.063 5.46021 99.2187 5.46021C98.3054 5.46021 98.159 5.88101 98.159 6.57959V8.42965H100.908L100.789 10.9632H98.159V18H100.713C102.534 18 104 16.534 104 14.7133V3.28671C104 1.46603 102.534 1.8e-05 100.713 1.8e-05H89.2867L89.2867 0Z" fill="#333333"/>
<path d="M45 0C44.4696 0 43.9609 0.210714 43.5858 0.585786C43.2107 0.960859 43 1.46957 43 2V16C43 16.5304 43.2107 17.0391 43.5858 17.4142C43.9609 17.7893 44.4696 18 45 18H59C59.5304 18 60.0391 17.7893 60.4142 17.4142C60.7893 17.0391 61 16.5304 61 16V2C61 1.46957 60.7893 0.960859 60.4142 0.585786C60.0391 0.210714 59.5304 0 59 0H45ZM45.5 5.5H47C47.36 5.5 47.5 5.66 47.64 6.07C48.36 8.17 49.57 10 50.07 10C50.26 10 50.35 9.92 50.35 9.45V7.28C50.29 6.28 49.76 6.19 49.76 5.84C49.76 5.67 49.9 5.5 50.14 5.5H52.45C52.77 5.5 52.87 5.67 52.87 6.04V8.96C52.87 9.27 53 9.38 53.1 9.38C53.29 9.38 53.45 9.27 53.79 8.93C54.85 7.74 55.6 5.92 55.6 5.92C55.7 5.7 55.87 5.5 56.24 5.5H57.71C58.16 5.5 58.26 5.73 58.16 6.04C57.97 6.9 56.18 9.43 56.18 9.43C56 9.68 55.96 9.8 56.18 10.09C56.33 10.3 56.85 10.74 57.19 11.15C57.83 11.86 58.3 12.46 58.44 12.87C58.56 13.29 58.35 13.5 57.93 13.5H56.45C55.89 13.5 55.73 13.05 54.73 12.05C53.85 11.21 53.5 11.1 53.26 11.1C52.96 11.1 52.87 11.18 52.87 11.61V12.93C52.87 13.29 52.76 13.5 51.82 13.5C50.26 13.5 48.54 12.55 47.33 10.8C45.5 8.24 45 6.31 45 5.92C45 5.7 45.08 5.5 45.5 5.5Z" fill="#333333"/>
<path d="M137.998 5.99861C136.345 5.99861 134.996 7.34725 134.996 8.99983C134.996 10.6524 136.345 12.0011 137.998 12.0011C139.65 12.0011 140.999 10.6524 140.999 8.99983C140.999 7.34725 139.65 5.99861 137.998 5.99861ZM146.999 8.99983C146.999 7.75702 147.01 6.52546 146.94 5.28489C146.871 3.84394 146.542 2.5651 145.488 1.51141C144.432 0.455468 143.156 0.129004 141.715 0.0592081C140.472 -0.0105877 139.24 0.000669689 138 0.000669689C136.757 0.000669689 135.525 -0.0105877 134.285 0.0592081C132.844 0.129004 131.565 0.45772 130.511 1.51141C129.455 2.56736 129.129 3.84394 129.059 5.28489C128.989 6.52771 129.001 7.75927 129.001 8.99983C129.001 10.2404 128.989 11.4742 129.059 12.7148C129.129 14.1557 129.458 15.4346 130.511 16.4883C131.567 17.5442 132.844 17.8707 134.285 17.9405C135.528 18.0103 136.759 17.999 138 17.999C139.243 17.999 140.474 18.0103 141.715 17.9405C143.156 17.8707 144.435 17.5419 145.488 16.4883C146.544 15.4323 146.871 14.1557 146.94 12.7148C147.013 11.4742 146.999 10.2426 146.999 8.99983ZM137.998 13.6176C135.442 13.6176 133.38 11.5553 133.38 8.99983C133.38 6.4444 135.442 4.38205 137.998 4.38205C140.553 4.38205 142.615 6.4444 142.615 8.99983C142.615 11.5553 140.553 13.6176 137.998 13.6176ZM142.804 5.27138C142.208 5.27138 141.726 4.78957 141.726 4.19292C141.726 3.59628 142.208 3.11447 142.804 3.11447C143.401 3.11447 143.883 3.59628 143.883 4.19292C143.883 4.3346 143.855 4.47492 143.801 4.60584C143.747 4.73677 143.668 4.85573 143.567 4.95591C143.467 5.05609 143.348 5.13552 143.217 5.18965C143.086 5.24379 142.946 5.27156 142.804 5.27138Z" fill="#333333"/>
</svg>
